<?xml version="1.0" encoding="UTF-8" standalone="no"?>
<svg
   xmlns:dc="http://purl.org/dc/elements/1.1/"
   xmlns:cc="http://creativecommons.org/ns#"
   xmlns:rdf="http://www.w3.org/1999/02/22-rdf-syntax-ns#"
   xmlns:svg="http://www.w3.org/2000/svg"
   xmlns="http://www.w3.org/2000/svg"
   xmlns:sodipodi="http://sodipodi.sourceforge.net/DTD/sodipodi-0.dtd"
   xmlns:inkscape="http://www.inkscape.org/namespaces/inkscape"
   inkscape:version="1.0 (4035a4f, 2020-05-01)"
   inkscape:export-ydpi="96"
   inkscape:export-xdpi="96"
   inkscape:export-filename="/Users/tesyatam/Desktop/untitled 2.png"
   sodipodi:docname="Icon.svg"
   id="svg63"
   version="1.1"
   style="white-space: pre;"
   shape-rendering="geometricPrecision"
   text-rendering="geometricPrecision"
   viewBox="0 0 1000 1000"
   height="1000"
   width="1000">
  <metadata
     id="metadata67">
    <rdf:RDF>
      <cc:Work
         rdf:about="">
        <dc:format>image/svg+xml</dc:format>
        <dc:type
           rdf:resource="http://purl.org/dc/dcmitype/StillImage" />
        <dc:title />
      </cc:Work>
    </rdf:RDF>
  </metadata>
  <sodipodi:namedview
     inkscape:current-layer="svg63"
     inkscape:window-maximized="0"
     inkscape:window-y="23"
     inkscape:window-x="0"
     inkscape:cy="689.62472"
     inkscape:cx="478.54447"
     inkscape:zoom="0.566"
     borderlayer="true"
     showgrid="false"
     id="namedview65"
     inkscape:window-height="716"
     inkscape:window-width="1440"
     inkscape:pageshadow="2"
     inkscape:pageopacity="0"
     guidetolerance="10"
     gridtolerance="10"
     objecttolerance="10"
     borderopacity="1"
     bordercolor="#ff6666"
     pagecolor="#ffffff"
     inkscape:document-rotation="0" />
  <defs
     id="defs32">
    <linearGradient
       gradientTransform="translate(-0.115334,-13.6819)"
       gradientUnits="userSpaceOnUse"
       y2="16.1187"
       x2="14.0591"
       y1="12.4325"
       x1="13.9601"
       id="Gradient-0">
      <stop
         id="stop10"
         stop-color="#000000"
         offset="0" />
      <stop
         style="stop-color:#4b3700;stop-opacity:0.48582995"
         id="stop12"
         stop-color="#4b3700"
         offset="1" />
    </linearGradient>
    <linearGradient
       gradientUnits="userSpaceOnUse"
       y2="3.8629291"
       x2="14.058857"
       y1="1.831869"
       x1="13.995817"
       id="Gradient-1">
      <stop
         style="stop-color:#412a0d;stop-opacity:0.87096769"
         id="stop15"
         stop-color="#4b3700"
         offset="0" />
      <stop
         id="stop17"
         stop-color="#000000"
         offset="1" />
    </linearGradient>
    <linearGradient
       gradientUnits="userSpaceOnUse"
       y2="3.1185"
       x2="13.3392"
       y1="-0.778746"
       x1="13.7887"
       id="Gradient-2">
      <stop
         id="stop20"
         stop-color="#000000"
         offset="0" />
      <stop
         id="stop22"
         stop-color="#4d3002"
         offset="1" />
    </linearGradient>
    <radialGradient
       gradientTransform="matrix(21.8678,-0.0871511,0.0557464,14.549,85.8646,54.3842)"
       gradientUnits="userSpaceOnUse"
       fy="7.35434"
       fx="9.23012"
       r="13.4849"
       cy="7.35434"
       cx="9.23012"
       id="Gradient-3">
      <stop
         id="stop25"
         stop-opacity="0"
         stop-color="#000000"
         offset="0.085" />
      <stop
         id="stop27"
         stop-color="#000000"
         offset="0.75" />
    </radialGradient>
    <clipPath
       id="ClipPath-2">
      <ellipse
         style="paint-order: fill markers stroke;"
         transform="translate(-26.5303,-107.29) scale(12.9319,12.8476) translate(4.02173,9.48666)"
         stroke-width="0.0686616"
         stroke-linejoin="round"
         stroke-linecap="round"
         fill-rule="evenodd"
         fill="#280b0b"
         ry="2.85981"
         rx="2.85981"
         id="circle170-5" />
    </clipPath>
  </defs>
  <rect
     ry="227.91519"
     y="0"
     x="1.7667845"
     height="1003.5336"
     width="998.23328"
     id="rect46"
     style="opacity:1;fill:#2b0000;fill-rule:evenodd;stroke-width:44.4805;stroke-linecap:square;stroke-linejoin:round;paint-order:fill markers stroke" />
  <g
     transform="translate(-1354.06,-133.916)"
     id="g56">
    <g
       transform="matrix(7.7,0,0,7.7,1484.8103,276.51913)"
       id="g53">
      <path
         d="M 3.7083299,0 A 3.7083299,3.7083299 0 0 1 0,3.7083299 3.7083299,3.7083299 0 0 1 -3.7083299,0 3.7083299,3.7083299 0 0 1 0,-3.7083299 3.7083299,3.7083299 0 0 1 3.7083299,0"
         transform="matrix(12.9319,0,0,12.8476,47.95531,45.789113)"
         style="fill:#782121;fill-rule:evenodd;stroke-width:0.0890342;stroke-linecap:round;stroke-linejoin:round;paint-order:fill markers stroke"
         id="path168-2" />
      <path
         d="M 2.8598101,0 A 2.8598101,2.8598101 0 0 1 0,2.8598101 2.8598101,2.8598101 0 0 1 -2.8598101,0 2.8598101,2.8598101 0 0 1 0,-2.8598101 2.8598101,2.8598101 0 0 1 2.8598101,0"
         transform="matrix(12.9319,0,0,12.8476,47.95531,45.789113)"
         style="fill:#280b0b;fill-rule:evenodd;stroke-width:0.0686616;stroke-linecap:round;stroke-linejoin:round;paint-order:fill markers stroke"
         id="circle170-3" />
      <path
         d="M 2.8598101,0 A 2.8598101,2.8598101 0 0 1 0,2.8598101 2.8598101,2.8598101 0 0 1 -2.8598101,0 2.8598101,2.8598101 0 0 1 0,-2.8598101 2.8598101,2.8598101 0 0 1 2.8598101,0"
         transform="matrix(12.9319,0,0,12.8476,47.95531,45.789113)"
         style="fill:#280b0b;fill-rule:evenodd;stroke-width:0.0686616;stroke-linecap:round;stroke-linejoin:round;paint-order:fill markers stroke"
         id="circle170-4" />
      <g
         clip-path="url(#ClipPath-2)"
         transform="translate(22.4771,31.19791)"
         id="g51">
        <g
           id="g49">
          <path
             d="M 6.9059401,0 A 6.9059401,6.9059401 0 0 1 0,6.9059401 6.9059401,6.9059401 0 0 1 -6.9059401,0 6.9059401,6.9059401 0 0 1 0,-6.9059401 6.9059401,6.9059401 0 0 1 6.9059401,0"
             style="fill:#c85702;stroke:none;stroke-width:1.81691;stroke-linecap:round;stroke-linejoin:round"
             transform="translate(6.90594,6.90594)"
             id="ellipse41" />
          <path
             d="M 6.9059401,0 A 6.9059401,6.9059401 0 0 1 0,6.9059401 6.9059401,6.9059401 0 0 1 -6.9059401,0 6.9059401,6.9059401 0 0 1 0,-6.9059401 6.9059401,6.9059401 0 0 1 6.9059401,0"
             style="fill:#c85702;stroke:none;stroke-width:1.81691;stroke-linecap:round;stroke-linejoin:round"
             transform="translate(44.0046,6.90664)"
             id="ellipse43" />
        </g>
      </g>
    </g>
  </g>
</svg>
