<?xml version="1.0" encoding="UTF-8" standalone="no"?>
<svg
   xmlns:dc="http://purl.org/dc/elements/1.1/"
   xmlns:cc="http://creativecommons.org/ns#"
   xmlns:rdf="http://www.w3.org/1999/02/22-rdf-syntax-ns#"
   xmlns:svg="http://www.w3.org/2000/svg"
   xmlns="http://www.w3.org/2000/svg"
   xmlns:xlink="http://www.w3.org/1999/xlink"
   xmlns:sodipodi="http://sodipodi.sourceforge.net/DTD/sodipodi-0.dtd"
   xmlns:inkscape="http://www.inkscape.org/namespaces/inkscape"
   sodipodi:docname="pic07.svg"
   inkscape:version="1.0rc1 (09960d6, 2020-04-09)"
   id="svg963"
   version="1.1"
   viewBox="0 0 368 256"
   height="256mm"
   width="368mm">
  <defs
     id="defs957">
    <linearGradient
       id="gradient0"
       gradientUnits="userSpaceOnUse"
       x1="207.23418"
       y1="352.26389"
       x2="259.97548"
       y2="508.28594"
       spreadMethod="pad"
       gradientTransform="matrix(0.26600786,0,0,0.12325054,129.50446,127.84199)">
      <stop
         stop-color="#757575"
         offset="0"
         stop-opacity="1"
         id="stop10" />
      <stop
         stop-color="#000000"
         offset="1"
         stop-opacity="0"
         id="stop12" />
    </linearGradient>
    <linearGradient
       id="gradient1"
       gradientUnits="userSpaceOnUse"
       x1="-327.71069"
       y1="975.29535"
       x2="445.14392"
       y2="371.86298"
       spreadMethod="pad"
       gradientTransform="matrix(0.18334665,0,0,0.17881764,107.47343,45.600284)">
      <stop
         style="stop-opacity:0.32797428"
         stop-color="#000000"
         offset="0"
         stop-opacity="0.698039215686274"
         id="stop15" />
      <stop
         style="stop-opacity:0.15755627"
         stop-color="#000000"
         offset="1"
         stop-opacity="0.109803921568627"
         id="stop17" />
    </linearGradient>
    <radialGradient
       gradientUnits="userSpaceOnUse"
       gradientTransform="matrix(1.6713168,-1.5293949,0.47847448,0.52287506,-154.92696,270.11421)"
       r="76.526573"
       fy="134.57584"
       fx="134.8631"
       cy="134.57584"
       cx="134.8631"
       id="radialGradient2062"
       xlink:href="#gradient1"
       inkscape:collect="always" />
  </defs>
  <sodipodi:namedview
     showborder="false"
     inkscape:snap-global="false"
     showguides="false"
     inkscape:snap-page="true"
     inkscape:snap-bbox-midpoints="true"
     inkscape:snap-bbox-edge-midpoints="true"
     inkscape:bbox-nodes="true"
     inkscape:bbox-paths="true"
     inkscape:snap-bbox="true"
     inkscape:window-maximized="0"
     inkscape:window-y="0"
     inkscape:window-x="0"
     inkscape:window-height="900"
     inkscape:window-width="1440"
     showgrid="false"
     inkscape:document-rotation="0"
     inkscape:current-layer="layer3"
     inkscape:document-units="mm"
     inkscape:cy="499.87653"
     inkscape:cx="-233.10054"
     inkscape:zoom="0.175"
     inkscape:pageshadow="2"
     inkscape:pageopacity="0.0"
     borderopacity="1.0"
     bordercolor="#666666"
     pagecolor="#ffffff"
     id="base" />
  <metadata
     id="metadata960">
    <rdf:RDF>
      <cc:Work
         rdf:about="">
        <dc:format>image/svg+xml</dc:format>
        <dc:type
           rdf:resource="http://purl.org/dc/dcmitype/StillImage" />
        <dc:title></dc:title>
      </cc:Work>
    </rdf:RDF>
  </metadata>
  <g
     inkscape:groupmode="layer"
     id="layer3"
     inkscape:label="Backgrund"
     style="display:inline">
    <rect
       rx="45.660717"
       ry="0"
       y="0"
       x="-1.5258789e-05"
       height="256"
       width="368.00003"
       id="rect997"
       style="display:inline;fill:#565656;fill-opacity:1;fill-rule:evenodd;stroke-width:12.6992;stroke-linecap:round;stroke-linejoin:round;paint-order:fill markers stroke" />
  </g>
  <g
     id="layer1"
     inkscape:groupmode="layer"
     inkscape:label="Layer 1"
     style="display:inline">
    <path
       inkscape:connector-curvature="0"
       d="m 174.84213,93.715001 h 20.48834 c 4.05376,0 7.31726,3.131092 7.31726,7.020389 v 38.19089 c 0,3.8893 -3.2635,7.02039 -7.31726,7.02039 h -20.48834 c -4.05376,0 -7.31726,-3.13109 -7.31726,-7.02039 v -38.19089 c 0,-3.889297 3.2635,-7.020389 7.31726,-7.020389 z"
       style="fill:#3a3a3a;stroke:#737373;stroke-width:7.24183;stroke-linecap:square;stroke-linejoin:bevel"
       id="shape1" />
    <path
       inkscape:connector-curvature="0"
       d="m 185.08629,104.89457 c 1.10329,0 1.9915,0.88821 1.9915,1.9915 v 24.89378 c 0,1.10329 -0.88821,1.9915 -1.9915,1.9915 -1.10329,0 -1.9915,-0.88821 -1.9915,-1.9915 v -24.89378 c 0,-1.10329 0.88821,-1.9915 1.9915,-1.9915 z"
       style="fill:none;stroke:#808080;stroke-width:7.24183;stroke-linecap:square;stroke-linejoin:bevel"
       id="shape2" />
    <path
       inkscape:connector-curvature="0"
       d="M 248.18073,119.5139 A 63.094416,61.64605 0 0 1 185.08632,181.15995 63.094416,61.64605 0 0 1 121.9919,119.5139 63.094416,61.64605 0 0 1 185.08632,57.867848 63.094416,61.64605 0 0 1 248.18073,119.5139"
       style="fill:#262626;fill-rule:evenodd;stroke:none;stroke-width:4.70719;stroke-linecap:square;stroke-linejoin:bevel"
       id="shape0" />
    <path
       inkscape:connector-curvature="0"
       d="m 234.14973,79.653628 c -15.03553,9.80632 -118.12582,5.316612 -110.98211,16.083705 -5.96396,9.345697 -0.59508,27.289547 6.15662,45.921657 8.53451,28.83454 41.27153,46.50772 72.78026,36.25631 54.12447,-17.69712 44.50832,-75.0853 32.04523,-98.261672 z"
       stroke-linejoin="bevel"
       stroke-linecap="square"
       stroke-width="0"
       stroke-opacity="0"
       stroke="#000000"
       fill-rule="evenodd"
       fill="#454545"
       id="shape01" />
    <path
       inkscape:connector-curvature="0"
       d="m 244.40913,102.69384 c -15.8161,9.98657 -113.90427,10.54689 -124.49926,17.36002 10.3093,52.38583 40.747,35.98579 72.75402,28.54037 41.64708,5.01231 66.3453,5.5703 51.74524,-45.90039 z"
       stroke-linejoin="bevel"
       stroke-linecap="square"
       stroke-width="0"
       stroke-opacity="0"
       stroke="#000000"
       fill-rule="evenodd"
       fill="#5e5e5e"
       id="path24"
       style="fill:#666666" />
    <path
       style="fill:#7d7d7d;fill-opacity:1"
       inkscape:connector-curvature="0"
       d="m 246.37026,127.18053 c -15.56985,11.67577 -117.44765,17.74237 -116.8633,19.41868 8.53451,24.48473 33.66763,41.81549 65.17636,33.11043 30.95049,-0.4133 45.29234,-24.90645 51.68694,-52.52911 z"
       stroke-linejoin="bevel"
       stroke-linecap="square"
       stroke-width="0"
       stroke-opacity="0"
       stroke="#000000"
       fill-rule="evenodd"
       fill="url(#gradient0)"
       id="shape011" />
    <path
       inkscape:connector-curvature="0"
       d="M 247.09444,119.5139 A 63.094416,61.64605 0 0 1 184.00003,181.15995 63.094416,61.64605 0 0 1 120.90561,119.5139 63.094416,61.64605 0 0 1 184.00003,57.867854 63.094416,61.64605 0 0 1 247.09444,119.5139"
       style="fill:none;stroke:#333333;stroke-width:6.51765;stroke-linecap:square;stroke-linejoin:bevel"
       id="ellipse27" />
    <path
       inkscape:connector-curvature="0"
       d="m 126.93191,154.81779 h 114.13625 c 7.40068,0 13.35864,5.69603 13.35864,12.77137 v 30.03828 c 0,7.07534 -5.95796,12.77137 -13.35864,12.77137 H 126.93191 c -7.40069,0 -13.35864,-5.69603 -13.35864,-12.77137 v -30.03828 c 0,-7.07534 5.95795,-12.77137 13.35864,-12.77137 z"
       style="fill:#2b2b2b;fill-rule:evenodd;stroke:#404040;stroke-width:0.00181046;stroke-linecap:square;stroke-linejoin:bevel"
       id="rect30" />
  </g>
  <g
     inkscape:label="Glass"
     inkscape:groupmode="layer"
     id="g1650"
     style="display:inline">
    <path
       id="path1642"
       fill="url(#gradient1)"
       fill-rule="evenodd"
       stroke="#000000"
       stroke-opacity="0"
       stroke-width="0"
       stroke-linecap="square"
       stroke-linejoin="bevel"
       d="m 260.52657,120.23632 c 0,-17.26899 -6.01345,-33.168753 -16.1098,-45.815083 C 230.4137,56.88205 208.55789,45.600284 184.00018,45.600284 c -42.2647,0 -76.52675,33.415734 -76.52675,74.636036 0,41.22049 34.26205,74.63641 76.52675,74.63641 42.26435,0 76.52639,-33.41592 76.52639,-74.63641 z"
       inkscape:connector-curvature="0"
       style="fill:url(#radialGradient2062);fill-opacity:1;stroke:none" />
  </g>
  <g
     style="display:inline"
     inkscape:label="Eye"
     inkscape:groupmode="layer"
     id="g1955">
    <path
       id="path1937"
       style="fill:none;stroke:#808080;stroke-width:7.24183;stroke-linecap:square;stroke-linejoin:bevel"
       d="m 185.08629,104.89457 c 1.10329,0 1.9915,0.88821 1.9915,1.9915 v 24.89378 c 0,1.10329 -0.88821,1.9915 -1.9915,1.9915 -1.10329,0 -1.9915,-0.88821 -1.9915,-1.9915 v -24.89378 c 0,-1.10329 0.88821,-1.9915 1.9915,-1.9915 z"
       inkscape:connector-curvature="0" />
    <path
       id="path1949"
       style="fill:#2b2b2b;fill-rule:evenodd;stroke:#404040;stroke-width:0.00181046;stroke-linecap:square;stroke-linejoin:bevel"
       d="m 126.93191,154.81779 h 114.13625 c 7.40068,0 13.35864,5.69603 13.35864,12.77137 v 30.03828 c 0,7.07534 -5.95796,12.77137 -13.35864,12.77137 H 126.93191 c -7.40069,0 -13.35864,-5.69603 -13.35864,-12.77137 v -30.03828 c 0,-7.07534 5.95795,-12.77137 13.35864,-12.77137 z"
       inkscape:connector-curvature="0" />
    <path
       inkscape:connector-curvature="0"
       d="m 174.58619,89.166904 h 20.48834 c 4.05376,0 7.31726,3.131092 7.31726,7.020389 v 38.190887 c 0,3.8893 -3.2635,7.02039 -7.31726,7.02039 h -20.48834 c -4.05376,0 -7.31726,-3.13109 -7.31726,-7.02039 V 96.187293 c 0,-3.889297 3.2635,-7.020389 7.31726,-7.020389 z"
       style="fill:#3a3a3a;stroke:#737373;stroke-width:7.24183;stroke-linecap:square;stroke-linejoin:bevel"
       id="path1951" />
    <path
       inkscape:connector-curvature="0"
       d="m 184.83035,100.34647 c 1.10329,0 1.9915,0.88821 1.9915,1.9915 v 24.89378 c 0,1.10329 -0.88821,1.9915 -1.9915,1.9915 -1.10329,0 -1.9915,-0.88821 -1.9915,-1.9915 v -24.89378 c 0,-1.10329 0.88821,-1.9915 1.9915,-1.9915 z"
       style="fill:none;stroke:#808080;stroke-width:7.24183;stroke-linecap:square;stroke-linejoin:bevel"
       id="path1953" />
  </g>
  <g
     style="display:inline"
     inkscape:label="Fix"
     inkscape:groupmode="layer"
     id="g1837">
    <path
       id="path1831"
       style="fill:#2b2b2b;fill-rule:evenodd;stroke:#404040;stroke-width:0.00181046;stroke-linecap:square;stroke-linejoin:bevel"
       d="m 126.93191,154.81779 h 114.13625 c 7.40068,0 13.35864,5.69603 13.35864,12.77137 v 30.03828 c 0,7.07534 -5.95796,12.77137 -13.35864,12.77137 H 126.93191 c -7.40069,0 -13.35864,-5.69603 -13.35864,-12.77137 v -30.03828 c 0,-7.07534 5.95795,-12.77137 13.35864,-12.77137 z"
       inkscape:connector-curvature="0" />
  </g>
</svg>
