<?xml version="1.0" encoding="UTF-8" standalone="no"?>
<svg
   xmlns:dc="http://purl.org/dc/elements/1.1/"
   xmlns:cc="http://creativecommons.org/ns#"
   xmlns:rdf="http://www.w3.org/1999/02/22-rdf-syntax-ns#"
   xmlns:svg="http://www.w3.org/2000/svg"
   xmlns="http://www.w3.org/2000/svg"
   xmlns:sodipodi="http://sodipodi.sourceforge.net/DTD/sodipodi-0.dtd"
   xmlns:inkscape="http://www.inkscape.org/namespaces/inkscape"
   inkscape:export-ydpi="96"
   inkscape:export-xdpi="96"
   inkscape:export-filename="/Users/aaronarcelio/Desktop/timemech.png"
   sodipodi:docname="Spaice E.svg"
   inkscape:version="1.0rc1 (09960d6, 2020-04-09)"
   id="svg8"
   version="1.1"
   viewBox="0 0 508 285.75"
   height="1080"
   width="1920">
  <defs
     id="defs2">
    <inkscape:path-effect
       lpeversion="1"
       is_visible="true"
       id="path-effect1122"
       effect="spiro" />
    <inkscape:path-effect
       lpeversion="1"
       is_visible="true"
       id="path-effect1108"
       effect="spiro" />
    <linearGradient
       id="gradient0"
       gradientUnits="userSpaceOnUse"
       x1="207.23418"
       y1="352.26389"
       x2="259.97548"
       y2="508.28594"
       spreadMethod="pad"
       gradientTransform="matrix(0.21918704,0,0,0.10155686,209.09637,142.7448)">
      <stop
         stop-color="#757575"
         offset="0"
         stop-opacity="1"
         id="stop10" />
      <stop
         stop-color="#000000"
         offset="1"
         stop-opacity="0"
         id="stop12" />
    </linearGradient>
    <linearGradient
       id="gradient1"
       gradientUnits="userSpaceOnUse"
       x1="-324.14792"
       y1="-432.18146"
       x2="834.77472"
       y2="834.77472"
       spreadMethod="pad"
       gradientTransform="matrix(0.15107527,0,0,0.14734343,190.94309,74.978698)">
      <stop
         stop-color="#000000"
         offset="0"
         stop-opacity="0.698039215686274"
         id="stop15" />
      <stop
         stop-color="#000000"
         offset="1"
         stop-opacity="0.109803921568627"
         id="stop17" />
    </linearGradient>
  </defs>
  <sodipodi:namedview
     borderlayer="true"
     inkscape:window-maximized="0"
     inkscape:window-y="23"
     inkscape:window-x="0"
     inkscape:window-height="726"
     inkscape:window-width="1440"
     inkscape:showpageshadow="true"
     showborder="true"
     showgrid="false"
     inkscape:document-rotation="0"
     inkscape:current-layer="layer1"
     inkscape:document-units="mm"
     inkscape:cy="380.43911"
     inkscape:cx="954.19737"
     inkscape:zoom="0.46569874"
     inkscape:pageshadow="2"
     inkscape:pageopacity="0"
     borderopacity="1.0"
     bordercolor="#666666"
     pagecolor="#757575"
     id="base"
     units="px" />
  <metadata
     id="metadata5">
    <rdf:RDF>
      <cc:Work
         rdf:about="">
        <dc:format>image/svg+xml</dc:format>
        <dc:type
           rdf:resource="http://purl.org/dc/dcmitype/StillImage" />
        <dc:title />
      </cc:Work>
    </rdf:RDF>
  </metadata>
  <g
     id="layer1"
     inkscape:groupmode="layer"
     inkscape:label="Layer 1">
    <rect
       ry="0"
       rx="387.64221"
       y="-103.64828"
       x="-98.827438"
       height="445.92865"
       width="716.69971"
       id="rect1182"
       style="fill:#aaccff;fill-rule:evenodd;stroke:none;stroke-width:6.0678;stroke-linecap:round;stroke-linejoin:round;stroke-miterlimit:4;stroke-dasharray:none;stroke-opacity:1;paint-order:fill markers stroke" />
    <path
       d="M -2.7855721,153.6199 -60.929301,-150.27033 231.31922,-48.679162 Z"
       sodipodi:type="star"
       style="fill:#0000aa;fill-rule:evenodd;stroke:none;stroke-width:4.99999;stroke-linecap:round;stroke-linejoin:round;stroke-miterlimit:4;stroke-dasharray:none;stroke-opacity:1;paint-order:fill markers stroke"
       id="path1184"
       sodipodi:sides="3"
       sodipodi:cx="55.868114"
       sodipodi:cy="-15.109864"
       sodipodi:r1="178.63367"
       sodipodi:r2="89.316833"
       sodipodi:arg1="1.9053485"
       sodipodi:arg2="2.952546"
       inkscape:flatsided="true"
       inkscape:rounded="0"
       inkscape:randomized="0"
       inkscape:transform-center-x="-29.326842"
       inkscape:transform-center-y="16.784653" />
    <path
       sodipodi:type="star"
       style="fill:#2b0000;fill-rule:evenodd;stroke:none;stroke-width:4.99999;stroke-linecap:round;stroke-linejoin:round;stroke-miterlimit:4;stroke-dasharray:none;stroke-opacity:1;paint-order:fill markers stroke"
       id="path1775"
       sodipodi:sides="3"
       sodipodi:cx="-23.917972"
       sodipodi:cy="16.99568"
       sodipodi:r1="178.63367"
       sodipodi:r2="89.316833"
       sodipodi:arg1="1.9053485"
       sodipodi:arg2="2.952546"
       inkscape:flatsided="true"
       inkscape:rounded="0"
       inkscape:randomized="0"
       inkscape:transform-center-x="-29.326842"
       inkscape:transform-center-y="16.784653"
       d="M -82.571659,185.72544 -140.71539,-118.16478 151.53313,-16.573618 Z" />
    <path
       d="M -82.571659,185.72544 -140.71539,-118.16478 151.53313,-16.573618 Z"
       inkscape:transform-center-y="16.784653"
       inkscape:transform-center-x="-29.326842"
       inkscape:randomized="0"
       inkscape:rounded="0"
       inkscape:flatsided="true"
       sodipodi:arg2="2.952546"
       sodipodi:arg1="1.9053485"
       sodipodi:r2="89.316833"
       sodipodi:r1="178.63367"
       sodipodi:cy="16.99568"
       sodipodi:cx="-23.917972"
       sodipodi:sides="3"
       id="path1178"
       style="fill:#0000ff;fill-rule:evenodd;stroke:none;stroke-width:4.99999;stroke-linecap:round;stroke-linejoin:round;stroke-miterlimit:4;stroke-dasharray:none;stroke-opacity:1;paint-order:fill markers stroke"
       sodipodi:type="star" />
    <path
       d="m -510.78558,-132.1301 -58.14373,-303.89023 292.24852,101.59117 z"
       inkscape:transform-center-y="16.784653"
       inkscape:transform-center-x="-29.326842"
       inkscape:randomized="0"
       inkscape:rounded="0"
       inkscape:flatsided="true"
       sodipodi:arg2="2.952546"
       sodipodi:arg1="1.9053485"
       sodipodi:r2="89.316833"
       sodipodi:r1="178.63367"
       sodipodi:cy="-300.85986"
       sodipodi:cx="-452.1319"
       sodipodi:sides="3"
       id="path1210"
       style="fill:#0000aa;fill-rule:evenodd;stroke:none;stroke-width:4.99999;stroke-linecap:round;stroke-linejoin:round;stroke-miterlimit:4;stroke-dasharray:none;stroke-opacity:1;paint-order:fill markers stroke"
       sodipodi:type="star"
       transform="scale(-1)" />
    <path
       d="m -590.57166,-100.02457 -58.14373,-303.89023 292.24852,101.59117 z"
       sodipodi:type="star"
       style="fill:#0000ff;fill-rule:evenodd;stroke:none;stroke-width:4.99999;stroke-linecap:round;stroke-linejoin:round;stroke-miterlimit:4;stroke-dasharray:none;stroke-opacity:1;paint-order:fill markers stroke"
       id="path1212"
       sodipodi:sides="3"
       sodipodi:cx="-531.91797"
       sodipodi:cy="-268.75433"
       sodipodi:r1="178.63367"
       sodipodi:r2="89.316833"
       sodipodi:arg1="1.9053485"
       sodipodi:arg2="2.952546"
       inkscape:flatsided="true"
       inkscape:rounded="0"
       inkscape:randomized="0"
       inkscape:transform-center-x="-29.326842"
       inkscape:transform-center-y="16.784653"
       transform="scale(-1)" />
    <path
       inkscape:connector-curvature="0"
       d="M 306.88409,135.88256 A 51.988985,50.79555 0 0 1 254.8951,186.67811 51.988985,50.79555 0 0 1 202.90612,135.88256 51.988985,50.79555 0 0 1 254.8951,85.087012 51.988985,50.79555 0 0 1 306.88409,135.88256"
       style="fill:#262626;fill-rule:evenodd;stroke:#666666;stroke-width:3.87866;stroke-linecap:square;stroke-linejoin:bevel"
       id="shape0" />
    <path
       inkscape:connector-curvature="0"
       d="m 295.32273,103.80901 c -12.38908,8.00559 -97.33415,4.34032 -91.44783,13.13026 -4.91423,7.62955 -0.49034,22.27838 5.07298,37.48908 7.03233,23.53967 34.00721,37.96753 59.96999,29.59858 44.59787,-14.44741 36.67428,-61.29742 26.40486,-80.21792 z"
       stroke-linejoin="bevel"
       stroke-linecap="square"
       stroke-width="0"
       stroke-opacity="0"
       stroke="#000000"
       fill-rule="evenodd"
       fill="#454545"
       id="shape01" />
    <path
       inkscape:connector-curvature="0"
       d="m 303.77635,122.90396 c -13.03227,8.06682 -93.85565,8.51943 -102.58579,14.02285 8.49473,42.31554 33.575,29.06813 59.94837,23.05397 34.31666,4.04877 54.66767,4.4995 42.63742,-37.07682 z"
       stroke-linejoin="bevel"
       stroke-linecap="square"
       stroke-width="0"
       stroke-opacity="0"
       stroke="#000000"
       fill-rule="evenodd"
       fill="#5e5e5e"
       id="path24" />
    <path
       style="fill:url(#gradient0)"
       inkscape:connector-curvature="0"
       d="m 305.39228,142.7448 c -12.82936,9.50458 -96.77535,14.44305 -96.29385,15.80764 7.03233,19.93162 27.7417,34.0396 53.70448,26.95331 25.50281,-0.33644 37.32031,-20.27492 42.58937,-42.76095 z"
       stroke-linejoin="bevel"
       stroke-linecap="square"
       stroke-width="0"
       stroke-opacity="0"
       stroke="#000000"
       fill-rule="evenodd"
       fill="url(#gradient0)"
       id="shape011" />
    <path
       inkscape:connector-curvature="0"
       d="m 305.98901,135.88257 a 51.988985,50.79555 0 0 1 -51.98899,50.79555 51.988985,50.79555 0 0 1 -51.98898,-50.79555 51.988985,50.79555 0 0 1 51.98898,-50.795554 51.988985,50.79555 0 0 1 51.98899,50.795554"
       style="fill:none;stroke:#333333;stroke-width:5.37046;stroke-linecap:square;stroke-linejoin:bevel"
       id="ellipse27" />
    <path
       style="fill:url(#gradient1)"
       inkscape:connector-curvature="0"
       d="m 317.0569,136.47783 c 0,-14.22943 -4.955,-27.33063 -13.27426,-37.751039 -11.53835,-14.452063 -29.54726,-23.748093 -49.78249,-23.748093 -34.82558,0 -63.05706,27.534132 -63.05706,61.499132 0,33.96515 28.23148,61.49944 63.05706,61.49944 34.82527,0 63.05675,-27.53429 63.05675,-61.49944 z"
       stroke-linejoin="bevel"
       stroke-linecap="square"
       stroke-width="0"
       stroke-opacity="0"
       stroke="#000000"
       fill-rule="evenodd"
       fill="url(#gradient1)"
       id="shape0111" />
    <path
       inkscape:connector-curvature="0"
       d="m 206.97663,164.97252 h 94.04679 c 6.09807,0 11.00735,4.69346 11.00735,10.52344 v 24.75116 c 0,5.82999 -4.90928,10.52344 -11.00735,10.52344 h -94.04679 c -6.09807,0 -11.00735,-4.69345 -11.00735,-10.52344 v -24.75116 c 0,-5.82998 4.90928,-10.52344 11.00735,-10.52344 z"
       style="fill:#2b2b2b;fill-rule:evenodd;stroke:#404040;stroke-width:0.00149179;stroke-linecap:square;stroke-linejoin:bevel"
       id="rect30" />
    <path
       inkscape:connector-curvature="0"
       d="m 246.45403,114.6246 h 16.88213 c 3.34024,0 6.02933,2.57998 6.02933,5.78471 v 31.4688 c 0,3.20473 -2.68909,5.78471 -6.02933,5.78471 h -16.88213 c -3.34025,0 -6.02933,-2.57998 -6.02933,-5.78471 v -31.4688 c 0,-3.20473 2.68908,-5.78471 6.02933,-5.78471 z"
       style="fill:#3a3a3a;stroke:#737373;stroke-width:5.96718;stroke-linecap:square;stroke-linejoin:bevel"
       id="shape1" />
    <path
       inkscape:connector-curvature="0"
       d="m 254.89509,123.83642 c 0.9091,0 1.64097,0.73187 1.64097,1.64097 v 20.51216 c 0,0.90909 -0.73187,1.64097 -1.64097,1.64097 -0.9091,0 -1.64097,-0.73188 -1.64097,-1.64097 v -20.51216 c 0,-0.9091 0.73187,-1.64097 1.64097,-1.64097 z"
       style="fill:none;stroke:#808080;stroke-width:5.96718;stroke-linecap:square;stroke-linejoin:bevel"
       id="shape2" />
  </g>
</svg>
