<?xml version="1.0" encoding="UTF-8" standalone="no"?>
<svg
   xmlns:dc="http://purl.org/dc/elements/1.1/"
   xmlns:cc="http://creativecommons.org/ns#"
   xmlns:rdf="http://www.w3.org/1999/02/22-rdf-syntax-ns#"
   xmlns:svg="http://www.w3.org/2000/svg"
   xmlns="http://www.w3.org/2000/svg"
   xmlns:sodipodi="http://sodipodi.sourceforge.net/DTD/sodipodi-0.dtd"
   xmlns:inkscape="http://www.inkscape.org/namespaces/inkscape"
   sodipodi:docname="svg.svg"
   id="svg34"
   version="1.1"
   viewBox="0 0 1920.24 1380.24"
   height="1380.24pt"
   width="1920.24pt"
   inkscape:version="1.0rc1 (09960d6, 2020-04-09)">
  <metadata
     id="metadata38">
    <rdf:RDF>
      <cc:Work
         rdf:about="">
        <dc:format>image/svg+xml</dc:format>
        <dc:type
           rdf:resource="http://purl.org/dc/dcmitype/StillImage" />
      </cc:Work>
    </rdf:RDF>
  </metadata>
  <sodipodi:namedview
     inkscape:document-rotation="0"
     inkscape:current-layer="svg34"
     inkscape:window-maximized="0"
     inkscape:window-y="241"
     inkscape:window-x="339"
     inkscape:cy="810.39936"
     inkscape:cx="1243.5731"
     inkscape:zoom="0.27332203"
     showgrid="false"
     id="namedview36"
     inkscape:window-height="480"
     inkscape:window-width="712"
     inkscape:pageshadow="2"
     inkscape:pageopacity="0"
     guidetolerance="10"
     gridtolerance="10"
     objecttolerance="10"
     borderopacity="1"
     bordercolor="#666666"
     pagecolor="#ffffff" />
  <defs
     id="defs20">
    <linearGradient
       spreadMethod="pad"
       y2="1.15695137568048"
       x2="0.59175159627968"
       y1="0.801816810541566"
       x1="0.471702743624414"
       gradientUnits="objectBoundingBox"
       id="gradient0">
      <stop
         id="stop10"
         stop-opacity="1"
         offset="0"
         stop-color="#757575" />
      <stop
         id="stop12"
         stop-opacity="0"
         offset="1"
         stop-color="#000000" />
    </linearGradient>
    <linearGradient
       spreadMethod="pad"
       y2="1"
       x2="1"
       y1="-0.321750452286738"
       x1="-0.26407074401504"
       gradientUnits="objectBoundingBox"
       id="gradient1">
      <stop
         id="stop15"
         stop-opacity="0.698039215686274"
         offset="0"
         stop-color="#000000" />
      <stop
         id="stop17"
         stop-opacity="0.109803921568627"
         offset="1"
         stop-color="#000000" />
    </linearGradient>
  </defs>
  <path
     d="M 696.91412,340.45804 A 348.45706,340.45804 0 0 1 348.45706,680.91608 348.45706,340.45804 0 0 1 0,340.45804 348.45706,340.45804 0 0 1 348.45706,0 348.45706,340.45804 0 0 1 696.91412,340.45804"
     style="fill:#262626;fill-rule:evenodd;stroke:#666666;stroke-width:25.9968;stroke-linecap:square;stroke-linejoin:bevel"
     transform="matrix(0.999999959647857 0 0 0.999999959647857 617.423877089668 275.466140125394)"
     id="shape0" />
  <path
     d="M627.161 0C544.123 53.6576 -25.2228 29.0911 14.2304 88.0058C-18.7073 139.143 10.9439 237.327 48.2321 339.277C95.3664 497.052 276.166 593.755 450.182 537.662C749.1 440.828 695.992 126.815 627.161 0Z"
     stroke-linejoin="bevel"
     stroke-linecap="square"
     stroke-width="0"
     stroke-opacity="0"
     stroke="#000000"
     fill-rule="evenodd"
     fill="#454545"
     transform="matrix(0.999999926997185 0 0 0.999999926997185 609.686776434737 400.95062700371)"
     id="shape01" />
  <path
     d="M687.583 0C600.234 54.068 58.5139 57.1016 0 93.9884C56.9361 377.609 225.037 288.818 401.805 248.508C631.813 275.645 768.216 278.666 687.583 0Z"
     stroke-linejoin="bevel"
     stroke-linecap="square"
     stroke-width="0"
     stroke-opacity="0"
     stroke="#000000"
     fill-rule="evenodd"
     fill="#5e5e5e"
     transform="matrix(0.99999988131897 0 0 0.99999988131897 605.925282168622 528.934873134601)"
     id="path24" />
  <path
     d="M645.425 0C559.436 63.7046 -3.21343 96.8048 0.0138283 105.951C47.1481 239.543 185.953 334.102 359.969 286.606C530.902 284.351 610.109 150.713 645.425 0Z"
     stroke-linejoin="bevel"
     stroke-linecap="square"
     stroke-width="0"
     stroke-opacity="0"
     stroke="#000000"
     fill-rule="evenodd"
     fill="url(#gradient0)"
     transform="matrix(0.999999902612917 0 0 0.999999902612917 658.914162426596 661.918453538645)"
     id="shape011" />
  <path
     d="M 696.91412,340.45804 A 348.45706,340.45804 0 0 1 348.45706,680.91608 348.45706,340.45804 0 0 1 0,340.45804 348.45706,340.45804 0 0 1 348.45706,0 348.45706,340.45804 0 0 1 696.91412,340.45804"
     style="fill:none;stroke:#333333;stroke-width:35.9956;stroke-linecap:square;stroke-linejoin:bevel"
     transform="matrix(0.999999903159162 0 0 0.999999903159162 611.424568016513 275.466173823775)"
     id="ellipse27" />
  <path
     d="M845.28 412.199C845.28 316.826 812.069 229.015 756.309 159.172C678.973 62.3068 558.268 0 422.641 0C189.222 -3.18503e-14 3.17071e-14 184.548 1.80477e-30 412.199C-3.17071e-14 639.851 189.222 824.4 422.641 824.4C656.058 824.4 845.28 639.851 845.28 412.199Z"
     stroke-linejoin="bevel"
     stroke-linecap="square"
     stroke-width="0"
     stroke-opacity="0"
     stroke="#000000"
     fill-rule="evenodd"
     fill="url(#gradient1)"
     transform="matrix(0.999999883607041 0 0 0.999999883607041 537.24147176499 207.714989808274)"
     id="shape0111" />
  <path
     d="M 73.776932,0 H 704.12718 c 40.87242,0 73.77693,31.457972 73.77693,70.533569 V 236.42859 c 0,39.0756 -32.90451,70.53357 -73.77693,70.53357 H 73.776932 C 32.904512,306.96216 0,275.50419 0,236.42859 V 70.533569 C 0,31.457972 32.904512,0 73.776932,0 Z"
     style="fill:#2b2b2b;fill-rule:evenodd;stroke:#404040;stroke-width:0.00999877;stroke-linecap:square;stroke-linejoin:bevel"
     transform="matrix(0.999999927951253 0 0 0.999999927951253 570.929585500209 810.90008582677)"
     id="rect30" />
  <path
     d="M 40.411694,0 H 153.56443 c 22.38807,0 40.41169,17.292358 40.41169,38.772102 V 249.69231 c 0,21.47975 -18.02362,38.77211 -40.41169,38.77211 H 40.411694 C 18.023615,288.46442 0,271.17206 0,249.69231 V 38.772102 C 0,17.292358 18.023615,0 40.411694,0 Z"
     style="fill:#3a3a3a;stroke:#737373;stroke-width:39.9951;stroke-linecap:square;stroke-linejoin:bevel"
     transform="matrix(0.99999986996835 0 0 0.99999986996835 868.892802524278 473.442351650719)"
     id="shape1" />
  <path
     d="m 10.998644,0 c 6.093249,0 10.998644,4.9053952 10.998644,10.998644 V 148.4817 c 0,6.09325 -4.905395,10.99865 -10.998644,10.99865 C 4.9053952,159.48035 0,154.57495 0,148.4817 V 10.998644 C 0,4.9053952 4.9053952,0 10.998644,0 Z"
     style="fill:none;stroke:#808080;stroke-width:39.9951;stroke-linecap:square;stroke-linejoin:bevel"
     transform="matrix(0.99999986996835 0 0 0.99999986996835 954.882207614746 535.184732733959)"
     id="shape2" />
</svg>
